<svg width="32" height="32" viewBox="0 0 32 32" fill="none" xmlns="http://www.w3.org/2000/svg">
<g id="mic 2">
<path id="Vector" d="M23 15.26C23 17.1165 22.2625 18.897 20.9497 20.2098C19.637 21.5225 17.8565 22.26 16 22.26C14.1435 22.26 12.363 21.5225 11.0503 20.2098C9.7375 18.897 9 17.1165 9 15.26" stroke="#4F4F50" stroke-width="2.125" stroke-miterlimit="10" stroke-linecap="round"/>
<path id="Vector_2" d="M16 22.66V28" stroke="#4F4F50" stroke-width="2.125" stroke-miterlimit="10" stroke-linecap="round"/>
<path id="Vector_3" d="M15.0781 28H19.5181" stroke="#4F4F50" stroke-width="2.125" stroke-miterlimit="10" stroke-linecap="round"/>
<path id="Vector_4" d="M12.4609 28H17.0009" stroke="#4F4F50" stroke-width="2.125" stroke-miterlimit="10" stroke-linecap="round"/>
<path id="Vector_5" d="M19.5 7.5C19.5 5.567 17.933 4 16 4C14.067 4 12.5 5.567 12.5 7.5V14.74C12.5 16.673 14.067 18.24 16 18.24C17.933 18.24 19.5 16.673 19.5 14.74V7.5Z" stroke="#4F4F50" stroke-width="2.125" stroke-miterlimit="10" stroke-linecap="round"/>
</g>
</svg>
