<svg width="21" height="21" viewBox="0 0 21 21" fill="none" xmlns="http://www.w3.org/2000/svg">
<path d="M15.5953 10.8104L10.4338 15.972C9.01849 17.3873 6.77071 17.3873 5.43869 15.972C4.02342 14.5567 4.02342 12.309 5.43869 10.9769L12.0988 4.31684C12.9313 3.56758 14.1801 3.56758 15.0126 4.31684C15.8451 5.14935 15.8451 6.48137 15.0126 7.23063L9.26825 12.975C9.0185 13.2247 8.60224 13.2247 8.35249 12.975C8.10273 12.7252 8.10273 12.309 8.35249 12.0592L12.5983 7.81339C12.9313 7.48039 12.9313 6.98088 12.5983 6.64788C12.2653 6.31487 11.7658 6.31487 11.4328 6.64788L7.18697 10.9769C6.27121 11.8927 6.27121 13.308 7.18697 14.2237C8.10273 15.0562 9.518 15.0562 10.4338 14.2237L16.1781 8.4794C17.6766 6.98088 17.6766 4.64985 16.1781 3.15133C14.6796 1.65281 12.3485 1.65281 10.85 3.15133L4.18993 9.81142C3.19091 10.8104 2.69141 12.1425 2.69141 13.4745C2.69141 16.3883 5.02244 18.636 7.93623 18.636C9.3515 18.636 10.6003 18.0533 11.5993 17.1375L16.7609 11.9759C17.0939 11.6429 17.0939 11.1434 16.7609 10.8104C16.4278 10.4774 15.9283 10.4774 15.5953 10.8104Z" fill="#6A7488"/>
</svg>
