<svg fill="none" xmlns="http://www.w3.org/2000/svg" viewBox="4 2 47 47">
    <g filter="url(#filter0_d_3389_29556)">
        <circle cx="27.5" cy="25.5" r="23.5" fill="#F0EFF4"></circle>
        <mask id="mask0_3389_29556" style="mask-type:alpha" maskUnits="userSpaceOnUse" x="4" y="2" width="47"
              height="47">
            <circle cx="27.5" cy="25.5" r="23.5" fill="#F0EFF4"></circle>
        </mask>
        <g mask="url(#mask0_3389_29556)">
            <path d="M19.3594 28.3504V13.6222C19.3594 12.5532 19.5699 11.4946 19.979 10.5069C20.3881 9.51918 20.9878 8.62174 21.7437 7.8658C22.4997 7.10986 23.3971 6.51021 24.3848 6.1011C25.3725 5.69199 26.4311 5.48143 27.5002 5.48145C28.5692 5.48143 29.6278 5.69199 30.6155 6.1011C31.6032 6.51021 32.5006 7.10986 33.2566 7.8658C34.0125 8.62174 34.6122 9.51918 35.0213 10.5069C35.4304 11.4946 35.6409 12.5532 35.6409 13.6222V28.3504"
                  fill="#3B3F4D"></path>
            <path d="M20.1797 43.9316H34.8252V48.8017H20.1797V43.9316Z" fill="#F55D55"></path>
            <path d="M43.0638 43.8116L41.3005 37.7688L39.6033 31.9501C39.178 30.5371 38.3088 29.2987 37.1245 28.4185C35.9402 27.5382 34.5039 27.0628 33.0283 27.0628H32.3518C31.8055 27.0624 31.2817 26.8452 30.8954 26.4589C30.5091 26.0726 30.2919 25.5488 30.2915 25.0025V23.8676H24.7114V25.0025C24.7108 25.5488 24.4936 26.0725 24.1073 26.4587C23.7211 26.845 23.1974 27.0622 22.6511 27.0628H21.9755C20.4998 27.0628 19.0633 27.5381 17.8789 28.4184C16.6944 29.2986 15.8251 30.537 15.3996 31.9501L11.9391 43.8116C11.8206 44.2176 11.8039 44.6466 11.8905 45.0607C11.9771 45.4747 12.1644 45.8611 12.4358 46.1856C12.7072 46.5101 13.0543 46.7627 13.4465 46.9212C13.8387 47.0797 14.2639 47.1392 14.6845 47.0944L25.4016 45.9492L25.5828 45.9303C26.0181 45.8838 26.4289 45.7052 26.7599 45.4186C27.0908 45.1319 27.3263 44.7509 27.4345 44.3267C27.4791 44.1533 27.5016 43.9751 27.5015 43.7961C27.5015 44.3259 27.6975 44.837 28.0517 45.231C28.4059 45.6249 28.8933 45.874 29.4201 45.9303L30.6074 46.0573L40.3184 47.0944C40.6669 47.1323 41.0195 47.0988 41.3546 46.9956L41.4044 46.9802C41.4129 46.9776 41.4224 46.975 41.431 46.9716C41.4756 46.9561 41.5194 46.9398 41.5623 46.9218C41.5623 46.9218 41.5632 46.9218 41.564 46.9209C42.139 46.6845 42.6099 46.2495 42.8912 45.695C42.911 45.6564 42.9299 45.6178 42.947 45.5783C42.9582 45.5525 42.9693 45.5268 42.9797 45.501C42.99 45.4753 43.0003 45.4487 43.0106 45.4229C43.0209 45.3963 43.0303 45.3697 43.0389 45.3431C43.2038 44.8472 43.2125 44.3126 43.0638 43.8116ZM20.1787 42.6921L16.7697 42.905L18.5888 38.1079C18.6541 38.2882 18.9314 39.217 19.0284 39.399C19.3137 39.9304 19.7052 40.3973 20.1787 40.7709V42.6921ZM34.9212 42.905V40.1622C34.9212 40.1622 35.6849 39.9176 36.0612 39.3956C36.3863 38.7486 36.3085 37.8538 36.3463 37.7688L38.2332 42.905H34.9212Z"
                  fill="#F55D55"></path>
            <path d="M36.9902 28.3197L36.4656 29.6005C35.5561 28.4794 34.3159 27.674 32.9219 27.299L33.0283 27.062H33.0292C34.4478 27.0615 35.8317 27.5009 36.9902 28.3197Z"
                  fill="#3CE568"></path>
            <path d="M32.2247 15.7178H33.5982C34.1447 15.7178 34.6687 15.9348 35.0551 16.3212C35.4415 16.7076 35.6586 17.2317 35.6586 17.7781C35.6586 18.3245 35.4415 18.8486 35.0551 19.235C34.6687 19.6214 34.1447 19.8384 33.5982 19.8384H32.2247V15.7178ZM22.7815 15.8036L21.408 15.7178C20.8615 15.7178 20.3375 15.9348 19.9511 16.3212C19.5647 16.7076 19.3477 17.2317 19.3477 17.7781C19.3477 18.3245 19.5647 18.8486 19.9511 19.235C20.3375 19.6214 20.8615 19.8384 21.408 19.8384L22.7815 19.9243"
                  fill="#FFC97A"></path>
            <path d="M31.4278 26.8439L31.3926 26.8765L29.1751 29.0777C28.7298 29.5198 28.1278 29.7679 27.5003 29.7679C26.8728 29.7679 26.2707 29.5198 25.8254 29.0777L23.608 26.8765L23.5977 26.8311C23.9331 26.6578 24.2144 26.3955 24.4107 26.073C24.6069 25.7504 24.7106 25.3801 24.7102 25.0025V23.8676H30.2903V25.0025C30.29 25.3848 30.3963 25.7597 30.5972 26.0849C30.7982 26.4102 31.0858 26.673 31.4278 26.8439Z"
                  fill="#FFC97A"></path>
            <path d="M36.9886 28.3199L28.5967 48.8012H23.2383L33.0268 27.0622H33.0277C34.4463 27.0617 35.8301 27.5011 36.9886 28.3199Z"
                  fill="#426AFB"></path>
            <path d="M27.4261 25.121C24.3279 25.0808 21.8633 22.4982 21.8633 19.3998V15.2915C21.8639 14.8768 22.0282 14.479 22.3205 14.1848C22.6129 13.8906 23.0095 13.7237 23.4242 13.7205C24.1541 13.7169 24.8693 13.515 25.4933 13.1365C27.1913 12.1055 27.4273 10.2822 27.4511 10.0693C27.5065 10.3214 27.973 12.2836 29.8937 13.2111C30.4335 13.4709 31.0209 13.6171 31.6195 13.6407C32.0265 13.6555 32.412 13.8273 32.6952 14.12C32.9784 14.4128 33.1373 14.8038 33.1386 15.2111V19.4838C33.1386 20.2305 32.9903 20.9697 32.7022 21.6585C32.4142 22.3474 31.9922 22.9722 31.4608 23.4966C30.9293 24.0211 30.299 24.4347 29.6064 24.7135C28.9138 24.9924 28.1727 25.1309 27.4261 25.121Z"
                  fill="#FFCD85"></path>
            <path d="M27.4995 15.8038C27.7366 15.8038 27.9288 15.6116 27.9288 15.3745C27.9288 15.1375 27.7366 14.9453 27.4995 14.9453C27.2625 14.9453 27.0703 15.1375 27.0703 15.3745C27.0703 15.6116 27.2625 15.8038 27.4995 15.8038Z"
                  fill="#FF6666"></path>
            <path d="M27.5017 14.9454C27.4504 14.9457 27.3995 14.9553 27.3516 14.9737C27.4335 15.004 27.5042 15.0586 27.5541 15.1303C27.6041 15.2019 27.6309 15.2872 27.6309 15.3745C27.6309 15.4619 27.6041 15.5471 27.5541 15.6188C27.5042 15.6905 27.4335 15.7451 27.3516 15.7754C27.4103 15.7974 27.4732 15.8062 27.5358 15.8012C27.5984 15.7963 27.6591 15.7776 27.7136 15.7466C27.7682 15.7156 27.8153 15.673 27.8516 15.6218C27.8879 15.5706 27.9125 15.512 27.9236 15.4502C27.9348 15.3885 27.9323 15.325 27.9162 15.2643C27.9002 15.2037 27.871 15.1473 27.8308 15.0991C27.7905 15.0509 27.7402 15.0122 27.6833 14.9856C27.6265 14.9591 27.5645 14.9453 27.5017 14.9453V14.9454Z"
                  fill="#FF4E4E"></path>
            <path d="M24.8511 18.4347C25.0882 18.4347 25.2803 18.096 25.2803 17.6783C25.2803 17.2605 25.0882 16.9219 24.8511 16.9219C24.614 16.9219 24.4219 17.2605 24.4219 17.6783C24.4219 18.096 24.614 18.4347 24.8511 18.4347Z"
                  fill="#4A4F60"></path>
            <path d="M30.148 18.4347C30.385 18.4347 30.5772 18.096 30.5772 17.6783C30.5772 17.2605 30.385 16.9219 30.148 16.9219C29.9109 16.9219 29.7188 17.2605 29.7188 17.6783C29.7188 18.096 29.9109 18.4347 30.148 18.4347Z"
                  fill="#4A4F60"></path>
            <path d="M27.6319 22.502H27.6239C27.2296 22.4978 26.8525 22.3403 26.5724 22.0627C26.5314 22.0231 26.4988 21.9757 26.4763 21.9234C26.4538 21.871 26.4419 21.8147 26.4414 21.7577C26.4409 21.7007 26.4518 21.6442 26.4734 21.5914C26.495 21.5387 26.5268 21.4907 26.5671 21.4504C26.6074 21.4101 26.6554 21.3783 26.7081 21.3567C26.7609 21.3351 26.8174 21.3242 26.8744 21.3247C26.9314 21.3252 26.9877 21.3371 27.0401 21.3596C27.0924 21.3821 27.1398 21.4148 27.1794 21.4557C27.2996 21.5734 27.4602 21.6406 27.6284 21.6435C27.7985 21.6405 27.9612 21.5735 28.084 21.4558C28.1646 21.3759 28.2736 21.3311 28.3871 21.3313C28.5006 21.3315 28.6094 21.3767 28.6897 21.4569C28.77 21.5371 28.8153 21.6459 28.8156 21.7594C28.8159 21.8729 28.7712 21.9819 28.6913 22.0626C28.4094 22.3423 28.029 22.5001 27.6319 22.502Z"
                  fill="#F55D55"></path>
            <path d="M27.5005 36.4844V43.796C27.5005 44.3258 27.3045 44.8368 26.9503 45.2308C26.5961 45.6248 26.1087 45.8739 25.5819 45.9301L14.6836 47.0942L16.4486 43.5479L16.7688 42.9049L17.1208 42.8825L20.1778 42.692L21.3814 42.6164L23.8435 42.4628L24.5714 40.1784C24.8057 39.4413 25.2135 38.7713 25.7604 38.2245L27.5005 36.4844ZM27.5005 36.4844V43.796C27.5006 44.3258 27.6966 44.8368 28.0508 45.2308C28.405 45.6248 28.8924 45.8739 29.4192 45.9301L40.3176 47.0942L38.5526 43.5479L38.2323 42.9049L37.8804 42.8825L34.8234 42.692L33.6198 42.6164L31.1577 42.4628L30.4297 40.1784C30.1954 39.4413 29.7877 38.7713 29.2407 38.2245L27.5005 36.4844Z"
                  fill="#FFCD85"></path>
            <path d="M30.0724 45.9299C29.5456 45.8736 29.0582 45.6245 28.704 45.2305C28.3498 44.8366 28.1538 44.3255 28.1537 43.7957V37.1379L27.5 36.4841V43.7957C27.5001 44.3255 27.6961 44.8366 28.0503 45.2305C28.4045 45.6245 28.8919 45.8736 29.4187 45.9299H30.0724Z"
                  fill="#FFC570"></path>
        </g>
    </g>
    <circle cx="27.5" cy="25.5" r="23" stroke="#426AFB"></circle>
    <defs>
        <filter id="filter0_d_3389_29556" x="0" y="0" width="55" height="55" filterUnits="userSpaceOnUse"
                color-interpolation-filters="sRGB">
            <feFlood flood-opacity="0" result="BackgroundImageFix"></feFlood>
            <feColorMatrix in="SourceAlpha" type="matrix" values="0 0 0 0 0 0 0 0 0 0 0 0 0 0 0 0 0 0 127 0"
                           result="hardAlpha"></feColorMatrix>
            <feOffset dy="2"></feOffset>
            <feGaussianBlur stdDeviation="2"></feGaussianBlur>
            <feComposite in2="hardAlpha" operator="out"></feComposite>
            <feColorMatrix type="matrix" values="0 0 0 0 0 0 0 0 0 0 0 0 0 0 0 0 0 0 0.2 0"></feColorMatrix>
            <feBlend mode="normal" in2="BackgroundImageFix" result="effect1_dropShadow_3389_29556"></feBlend>
            <feBlend mode="normal" in="SourceGraphic" in2="effect1_dropShadow_3389_29556" result="shape"></feBlend>
        </filter>
    </defs>
</svg>