<svg width="288" height="288" viewBox="0 0 288 288" fill="none" xmlns="http://www.w3.org/2000/svg">
<circle cx="144" cy="144" r="144" fill="#0C85BA"/>
<path d="M231.25 193.148V248.711H58V193.148C57.9903 187.765 59.7373 182.526 62.9759 178.227C66.2144 173.927 70.7675 170.802 75.9438 169.326L144.625 149.711L148.152 150.701L213.306 169.326C218.483 170.802 223.036 173.927 226.274 178.227C229.513 182.526 231.26 187.765 231.25 193.148Z" fill="#F55D55"/>
<path d="M82.1313 169.326L147.744 150.59L144.625 149.711L75.9438 169.326C70.7675 170.802 66.2144 173.927 62.9759 178.227C59.7373 182.526 57.9903 187.765 58 193.148V248.711H64.1875V193.148C64.1778 187.765 65.9248 182.526 69.1634 178.227C72.4019 173.927 76.955 170.802 82.1313 169.326V169.326ZM147.719 164.004V248.711H141.531V164.004C141.527 163.597 141.604 163.193 141.758 162.816C141.912 162.438 142.14 162.096 142.428 161.808C142.716 161.519 143.059 161.292 143.436 161.138C143.813 160.984 144.218 160.907 144.625 160.911C144.833 160.897 145.042 160.918 145.244 160.973C145.945 161.11 146.577 161.488 147.029 162.042C147.481 162.595 147.725 163.29 147.719 164.004Z" fill="#D13C34"/>
<path d="M176.986 158.931C177.068 159.449 177.025 159.979 176.862 160.478C174.203 166.91 169.75 172.441 164.034 176.413C158.318 180.384 151.581 182.628 144.625 182.876C137.625 182.807 130.808 180.634 125.059 176.639C119.31 172.645 114.895 167.014 112.388 160.478C112.225 159.979 112.182 159.449 112.264 158.931L117.586 157.446L122.35 156.084L144.625 149.711L166.962 156.084L171.664 157.446L176.986 158.931Z" fill="white"/>
<path d="M95.125 230.149V248.711H88.9375V230.149C88.9375 229.328 89.2634 228.541 89.8436 227.961C90.4238 227.381 91.2107 227.055 92.0312 227.055C92.8518 227.055 93.6387 227.381 94.2189 227.961C94.7991 228.541 95.125 229.328 95.125 230.149ZM200.312 230.149V248.711H194.125V230.149C194.125 229.328 194.451 228.541 195.031 227.961C195.611 227.381 196.398 227.055 197.219 227.055C198.039 227.055 198.826 227.381 199.406 227.961C199.987 228.541 200.312 229.328 200.312 230.149Z" fill="#D13C34"/>
<path d="M166.962 156.084C166.158 157.322 165.229 158.498 164.301 159.673C159.081 166.199 152.32 171.324 144.625 174.585C136.931 171.324 130.169 166.199 124.949 159.673C124.021 158.498 123.154 157.322 122.35 156.084L144.625 149.711L166.962 156.084Z" fill="#E0B373"/>
<path d="M123.082 147.445V156L144.503 163.868L163.967 156V135.686L144.319 131.013L135.436 135.686L123.082 147.445Z" fill="#E0B373"/>
<path d="M123.082 141.792C123.082 141.792 99.6197 133.551 92.6438 112.287C85.6679 91.0227 88.6206 74.2058 88.6206 74.2058L115.144 78.3347L121.802 130.377L123.082 141.792V141.792Z" fill="#D13C34"/>
<path d="M168.952 140.401C168.952 140.401 189.32 132.906 198.194 107.999C198.194 107.999 205.17 89.4399 200.411 78.3347C195.651 67.2295 185.514 66.593 185.514 66.593L167.137 98.0075L168.952 140.401V140.401Z" fill="#D13C34"/>
<path d="M115.152 78.3345H175.694V121.348C175.694 138.073 162.127 151.657 145.423 151.657C128.719 151.657 115.152 138.073 115.152 121.348V78.3345Z" fill="#FFCD85"/>
<path d="M159.475 81.1153C159.475 81.1153 190.591 101.19 200.41 78.3348C205.797 65.8143 189.955 35.1787 165.004 33.0849C156.38 32.3647 159.475 81.1153 159.475 81.1153V81.1153Z" fill="#DB4A43"/>
<path d="M95.8556 83.2675C90.7868 80.3111 88.0098 74.6413 88.7375 68.8123C89.9002 59.5077 95.2116 45.4127 115.152 36.1249C135.093 26.837 151.487 28.4199 160.671 30.9575C165.991 32.4315 169.814 37.0629 170.357 42.5568C171.687 55.9903 170.683 81.6427 145.423 88.8033C122.337 95.3442 104.931 88.5521 95.864 83.2675H95.8556Z" fill="#F55D55"/>
<path d="M179.627 135.961C179.092 138.44 178.13 140.559 176.775 142.225C175.244 144.126 172.442 146.647 167.741 147.937C166.127 148.381 164.538 148.573 162.999 148.573C158.072 148.573 153.631 146.605 150.477 144.679C150.251 144.562 148.821 143.766 148.311 143.373C147.014 142.384 146.011 141.522 145.216 140.592C144.421 141.522 143.409 142.401 142.121 143.373C141.594 143.766 140.181 144.562 139.896 144.721C136.785 146.622 132.36 148.59 127.433 148.59C125.903 148.59 124.313 148.397 122.691 147.954C118.007 146.656 115.188 144.126 113.657 142.242C112.294 140.567 111.34 138.456 110.805 135.977C110.562 134.889 111.031 133.808 111.993 133.239C112.946 132.669 114.117 132.778 114.97 133.507C116.141 134.462 117.446 135.316 118.835 136.028C121.637 137.468 123.293 138.255 124.573 137.77C126.538 137.016 126.94 134.83 126.998 134.403L127.191 133.029C127.567 130.349 128.956 127.963 131.105 126.329C133.263 124.688 135.923 124.001 138.608 124.361C141.243 124.722 143.618 126.128 145.216 128.189C146.822 126.128 149.189 124.722 151.824 124.361C157.361 123.591 162.472 127.485 163.241 133.029L163.434 134.403C163.484 134.838 163.894 137.016 165.859 137.77C167.156 138.272 168.795 137.477 171.597 136.028C172.986 135.316 174.291 134.462 175.487 133.482C176.306 132.77 177.477 132.669 178.439 133.239C179.401 133.808 179.87 134.88 179.652 135.961H179.627Z" fill="#231F20"/>
<path d="M115.111 105.846C115.111 103.718 113.388 101.994 111.263 101.994C109.138 101.994 107.415 103.718 107.415 105.846V112.965C107.415 115.093 109.138 116.817 111.263 116.817C113.388 116.817 115.111 115.093 115.111 112.965V105.846Z" fill="#FFCD85"/>
<path d="M183.389 105.846C183.389 103.718 181.666 101.994 179.541 101.994C177.416 101.994 175.694 103.718 175.694 105.846V112.965C175.694 115.093 177.416 116.817 179.541 116.817C181.666 116.817 183.389 115.093 183.389 112.965V105.846Z" fill="#FFCD85"/>
<path d="M134.394 113.853H134.356C132.484 113.834 130.693 113.086 129.364 111.768C129.169 111.58 129.014 111.355 128.907 111.106C128.8 110.858 128.744 110.59 128.742 110.32C128.739 110.049 128.791 109.781 128.893 109.53C128.996 109.28 129.147 109.052 129.339 108.861C129.53 108.67 129.757 108.518 130.008 108.416C130.258 108.313 130.527 108.262 130.797 108.264C131.068 108.267 131.335 108.323 131.584 108.43C131.833 108.536 132.057 108.692 132.245 108.886C132.816 109.445 133.579 109.764 134.377 109.778C135.185 109.763 135.957 109.445 136.54 108.887C136.923 108.507 137.44 108.295 137.979 108.295C138.518 108.296 139.035 108.511 139.416 108.892C139.797 109.273 140.012 109.789 140.014 110.328C140.015 110.867 139.803 111.385 139.424 111.767C138.085 113.095 136.279 113.844 134.394 113.853V113.853Z" fill="#231F20"/>
<path d="M155.262 113.853H155.224C153.352 113.834 151.561 113.086 150.232 111.768C150.037 111.58 149.882 111.355 149.775 111.106C149.668 110.858 149.612 110.59 149.61 110.32C149.607 110.049 149.659 109.781 149.761 109.53C149.864 109.28 150.015 109.052 150.207 108.861C150.398 108.67 150.625 108.518 150.876 108.416C151.126 108.313 151.395 108.262 151.665 108.264C151.936 108.267 152.203 108.323 152.452 108.43C152.7 108.536 152.925 108.692 153.113 108.886C153.684 109.445 154.447 109.764 155.245 109.778C156.052 109.763 156.825 109.445 157.408 108.887C157.791 108.507 158.308 108.295 158.847 108.295C159.386 108.296 159.903 108.511 160.284 108.892C160.665 109.273 160.88 109.789 160.882 110.328C160.883 110.867 160.671 111.385 160.292 111.767C158.953 113.095 157.147 113.844 155.262 113.853V113.853Z" fill="#231F20"/>
<rect x="141.742" y="92.2642" width="6" height="10" rx="3" fill="#F55D55"/>
</svg>
