<svg width="12" height="13" viewBox="0 0 12 13" fill="none" xmlns="http://www.w3.org/2000/svg">
<path d="M7.27033 6.19687L11.4294 2.04751C11.6115 1.86538 11.7138 1.61836 11.7138 1.36079C11.7138 1.10322 11.6115 0.856198 11.4294 0.674068C11.2472 0.491938 11.0002 0.389618 10.7426 0.389618C10.4851 0.389618 10.238 0.491938 10.0559 0.674068L5.90656 4.83309L1.7572 0.674068C1.57507 0.491938 1.32805 0.389618 1.07048 0.389618C0.812909 0.389618 0.565887 0.491938 0.383757 0.674068C0.201627 0.856198 0.0993069 1.10322 0.0993069 1.36079C0.0993069 1.61836 0.201627 1.86538 0.383757 2.04751L4.54278 6.19687L0.383757 10.3462C0.293101 10.4361 0.221146 10.5431 0.172042 10.661C0.122938 10.7788 0.0976562 10.9053 0.0976562 11.0329C0.0976562 11.1606 0.122938 11.287 0.172042 11.4049C0.221146 11.5228 0.293101 11.6298 0.383757 11.7197C0.473672 11.8103 0.580647 11.8823 0.698511 11.9314C0.816375 11.9805 0.942796 12.0058 1.07048 12.0058C1.19816 12.0058 1.32458 11.9805 1.44245 11.9314C1.56031 11.8823 1.66729 11.8103 1.7572 11.7197L5.90656 7.56064L10.0559 11.7197C10.1458 11.8103 10.2528 11.8823 10.3707 11.9314C10.4885 11.9805 10.6149 12.0058 10.7426 12.0058C10.8703 12.0058 10.9967 11.9805 11.1146 11.9314C11.2325 11.8823 11.3394 11.8103 11.4294 11.7197C11.52 11.6298 11.592 11.5228 11.6411 11.4049C11.6902 11.287 11.7155 11.1606 11.7155 11.0329C11.7155 10.9053 11.6902 10.7788 11.6411 10.661C11.592 10.5431 11.52 10.4361 11.4294 10.3462L7.27033 6.19687Z" fill="current"/>
</svg>
