<svg width="21" height="21" viewBox="0 0 21 21" fill="none" xmlns="http://www.w3.org/2000/svg">
<path d="M10.3246 2.9848C14.4627 2.9848 17.8172 6.33935 17.8172 10.4774C17.8172 14.6154 14.4627 17.97 10.3246 17.97C6.18658 17.97 2.83203 14.6154 2.83203 10.4774C2.83203 6.33935 6.18658 2.9848 10.3246 2.9848ZM10.3246 4.23357C6.87626 4.23357 4.0808 7.02904 4.0808 10.4774C4.0808 13.9258 6.87626 16.7212 10.3246 16.7212C13.773 16.7212 16.5685 13.9258 16.5685 10.4774C16.5685 7.02904 13.773 4.23357 10.3246 4.23357ZM12.6518 12.5585C12.8817 12.3016 13.2765 12.2797 13.5335 12.5097C13.7903 12.7397 13.8122 13.1344 13.5823 13.3914C12.7828 14.2845 11.6191 14.8481 10.3246 14.8481C9.03013 14.8481 7.86641 14.2845 7.067 13.3914C6.83703 13.1344 6.85889 12.7397 7.11584 12.5097C7.3728 12.2797 7.76752 12.3016 7.99751 12.5585C8.57004 13.1982 9.40009 13.5993 10.3246 13.5993C11.2492 13.5993 12.0792 13.1982 12.6518 12.5585ZM8.13929 8.29206C8.65655 8.29206 9.07587 8.71139 9.07587 9.22864C9.07587 9.74589 8.65655 10.1652 8.13929 10.1652C7.62204 10.1652 7.20272 9.74589 7.20272 9.22864C7.20272 8.71139 7.62204 8.29206 8.13929 8.29206ZM12.51 8.29206C13.0272 8.29206 13.4466 8.71139 13.4466 9.22864C13.4466 9.74589 13.0272 10.1652 12.51 10.1652C11.9927 10.1652 11.5734 9.74589 11.5734 9.22864C11.5734 8.71139 11.9927 8.29206 12.51 8.29206Z" fill="#6A7488"/>
</svg>
