<svg width="55" height="50" viewBox="0 0 55 50" fill="none" xmlns="http://www.w3.org/2000/svg">
<path d="M3.92853 0C1.75214 0 0 1.75215 0 3.92846V33.3919C0 35.5682 1.75214 37.3204 3.92853 37.3204H5.8928V49.1058C5.89224 49.2775 5.94131 49.4458 6.03415 49.5904C6.12698 49.7349 6.2596 49.8495 6.41606 49.9205C6.57251 49.9914 6.74614 50.0156 6.91602 49.9902C7.08591 49.9648 7.24484 49.8908 7.37367 49.7771L21.6069 37.3204H51.0709C53.2473 37.3204 54.9995 35.5683 54.9995 33.3919V3.92846C54.9995 1.75209 53.2473 0 51.0709 0H3.92853ZM27.5074 5.89653C32.3609 5.89653 36.3389 9.88599 36.3389 14.7394C36.3389 18.4778 33.6543 21.0737 30.4385 22.2971V22.6002C30.4326 24.2081 29.1153 25.5218 27.5074 25.5273C27.5022 25.5274 27.4969 25.5274 27.4917 25.5273C25.8837 25.5214 24.57 24.2081 24.5645 22.6002V20.6283C24.5644 20.623 24.5644 20.6178 24.5645 20.6126C24.5704 19.0048 25.8839 17.6911 27.4917 17.6854C27.4969 17.6854 27.5022 17.6854 27.5074 17.6854C29.1818 17.6854 30.45 16.4135 30.45 14.739C30.45 13.0647 29.1818 11.7812 27.5074 11.7812C25.8371 11.7812 24.5557 13.0554 24.5495 14.7237C24.5554 16.3399 23.2385 17.6798 21.6223 17.6854C20.0018 17.6913 18.6645 16.358 18.6644 14.739C18.6644 9.88563 22.6539 5.89617 27.5074 5.89617V5.89653ZM27.5074 7.85309C23.7288 7.85309 20.621 10.9609 20.621 14.7394C20.619 15.297 21.0495 15.7275 21.6069 15.7254C22.1612 15.7234 22.5951 15.294 22.5929 14.7394C22.5929 12.028 24.796 9.82499 27.5074 9.82499C30.2188 9.82499 32.4104 12.028 32.4104 14.7394C32.4104 17.4508 30.2188 19.6423 27.5074 19.6423C26.9562 19.6443 26.5234 20.0774 26.5214 20.6283V22.6002C26.5293 23.1377 26.9567 23.5406 27.4921 23.5554C28.0373 23.5476 28.4761 23.132 28.478 22.5848V21.7869C28.4773 21.5753 28.5448 21.3692 28.6706 21.1992C28.7964 21.0291 28.9738 20.9043 29.1763 20.8431C32.124 19.9774 34.3823 17.8084 34.3823 14.7394C34.3823 10.9609 31.286 7.85309 27.5074 7.85309ZM27.5074 25.5427C29.123 25.5427 30.4499 26.8696 30.45 28.4852C30.4499 30.1008 29.123 31.4315 27.5074 31.4315C25.8918 31.4315 24.5495 30.1008 24.5495 28.4852C24.5495 26.8696 25.8918 25.5427 27.5074 25.5427ZM27.5074 27.4992C26.9534 27.4992 26.5214 27.9314 26.5214 28.4852C26.5214 29.0391 26.9533 29.4711 27.5074 29.4711C28.0615 29.4711 28.478 29.039 28.478 28.4852C28.478 27.9313 28.0615 27.4992 27.5074 27.4992Z" fill="current"/>
</svg>
