<svg width="55" height="50" viewBox="0 0 55 50" fill="none" xmlns="http://www.w3.org/2000/svg">
<g clip-path="url(#clip0_1575_21436)">
<path d="M54.3019 22.9412V29.4853C54.3019 30.7353 53.2725 31.7647 52.0225 31.7647H49.0078V20.6617H52.0225C53.2725 20.6617 54.3019 21.6912 54.3019 22.9412Z" fill="current"/>
<path d="M31.801 42.7941L29.0804 42.8676L18.2716 50C18.1981 50 18.1981 50 18.1981 49.9264V42.7206H12.904C9.08042 42.7206 5.99219 39.6323 5.99219 35.8088V16.25C5.99219 12.4264 9.08042 9.3382 12.904 9.3382H42.1687C45.9922 9.3382 49.0804 12.4264 49.0804 16.25V35.8823C49.0804 39.7058 45.9922 42.7941 42.1687 42.7941H39.3745H31.801Z" fill="current"/>
<path d="M19.5956 23.6765C21.8015 23.6765 23.5662 21.9118 23.5662 19.7059C23.5662 17.5 21.8015 15.7353 19.5956 15.7353C17.3897 15.7353 15.625 17.5 15.625 19.7059C15.625 21.9118 17.3897 23.6765 19.5956 23.6765Z" fill="white"/>
<path d="M35.5526 23.6765C37.7585 23.6765 39.5232 21.9118 39.5232 19.7059C39.5232 17.5 37.7585 15.7353 35.5526 15.7353C33.3467 15.7353 31.582 17.5 31.582 19.7059C31.582 21.9118 33.3467 23.6765 35.5526 23.6765Z" fill="white"/>
<path d="M18.7891 29.9265C19.3773 33.897 22.9802 36.9853 27.3185 36.9853C31.7302 36.9853 35.3332 33.897 35.8479 29.9265H18.7891Z" fill="#F2C94C"/>
<path d="M6.06755 20.6617V31.7647H3.05285C1.80285 31.7647 0.773438 30.7353 0.773438 29.4853V22.9412C0.773438 21.6912 1.80285 20.6617 3.05285 20.6617H6.06755Z" fill="current"/>
<path d="M30.0366 3.52937C30.2572 2.05878 29.3013 0.661722 27.8308 0.441134C26.3602 0.220546 24.9631 1.17643 24.7425 2.64702C24.5219 4.1176 25.4778 5.51466 26.9484 5.73525C28.419 6.02937 29.8161 4.99996 30.0366 3.52937Z" fill="#EE4037"/>
<path d="M28.054 5.80884H26.7305V9.19119H28.054V5.80884Z" fill="#EE4037"/>
</g>
<defs>
<clipPath id="clip0_1575_21436">
<rect width="53.6765" height="50" fill="white" transform="translate(0.773438)"/>
</clipPath>
</defs>
</svg>
