<svg width="53" height="50" viewBox="0 0 53 50" fill="none" xmlns="http://www.w3.org/2000/svg">
<path d="M36.1676 15.6234V21.0363H29.4016V27.8023H23.9887V21.0363H17.2227V15.6234H23.9887V8.85736H29.4016V15.6234H36.1676Z" fill="#FEDB41"/>
<path d="M46.9983 0H5.90001C2.67567 0 0 2.68551 0 6.06609V31.8706C0 35.25 2.67567 38.013 5.90001 38.013H8.73438V50L20.0263 38.013H46.9983C50.2227 38.013 52.7753 35.25 52.7753 31.8706V6.06609C52.7753 2.68551 50.2227 0 46.9983 0ZM36.1677 21.0363H29.4016V27.8024H23.9888V21.0363H17.2227V15.6235H23.9888V8.8574H29.4016V15.6235H36.1677V21.0363Z" fill="current"/>
</svg>
