<svg width="50" height="50" viewBox="0 0 50 50" fill="none" xmlns="http://www.w3.org/2000/svg">
<path d="M25 0C11.25 0 1.30385e-07 11.25 1.30385e-07 25C1.30385e-07 30.75 2 36.25 5.75 40.75L0.75 45.75C-0.25 46.75 -0.25 48.25 0.75 49.25C1.25 49.75 1.75 50 2.5 50H25C38.75 50 50 38.75 50 25C50 11.25 38.75 0 25 0ZM15 27.5C13.5 27.5 12.5 26.5 12.5 25C12.5 23.5 13.5 22.5 15 22.5C16.5 22.5 17.5 23.5 17.5 25C17.5 26.5 16.5 27.5 15 27.5ZM25 27.5C23.5 27.5 22.5 26.5 22.5 25C22.5 23.5 23.5 22.5 25 22.5C26.5 22.5 27.5 23.5 27.5 25C27.5 26.5 26.5 27.5 25 27.5ZM35 27.5C33.5 27.5 32.5 26.5 32.5 25C32.5 23.5 33.5 22.5 35 22.5C36.5 22.5 37.5 23.5 37.5 25C37.5 26.5 36.5 27.5 35 27.5Z" fill="current"/>
</svg>
