<svg width="38" height="38" viewBox="0 0 38 38" fill="none" xmlns="http://www.w3.org/2000/svg">
<g clip-path="url(#clip0_2075_28949)">
<path d="M11.6914 19.854V7.41225C11.6914 6.50915 11.8693 5.6149 12.2149 4.78054C12.5605 3.94618 13.067 3.18806 13.7056 2.54948C14.3442 1.91089 15.1023 1.40433 15.9367 1.05874C16.771 0.713141 17.6653 0.535269 18.5684 0.535278C19.4715 0.535269 20.3657 0.713141 21.2001 1.05874C22.0345 1.40433 22.7926 1.91089 23.4312 2.54948C24.0697 3.18806 24.5763 3.94618 24.9219 4.78054C25.2675 5.6149 25.4454 6.50915 25.4454 7.41225V19.854" fill="#3B3F4D"/>
<path d="M12.3789 33.0161H24.7508V37.1302H12.3789V33.0161Z" fill="#F55D55"/>
<path d="M31.712 32.9146L30.2224 27.8099L28.7887 22.8945C28.4294 21.7009 27.6951 20.6548 26.6947 19.9111C25.6943 19.1675 24.4809 18.7659 23.2344 18.766H22.6629C22.2015 18.7656 21.759 18.5821 21.4327 18.2558C21.1063 17.9294 20.9229 17.487 20.9225 17.0255V16.0668H16.2087V17.0255C16.2082 17.4869 16.0247 17.9293 15.6984 18.2556C15.3721 18.5819 14.9297 18.7655 14.4682 18.766H13.8975C12.6509 18.7659 11.4374 19.1674 10.4368 19.911C9.43627 20.6547 8.70189 21.7008 8.34247 22.8945L5.4192 32.9146C5.31906 33.2576 5.30496 33.62 5.37814 33.9698C5.45131 34.3195 5.60951 34.6459 5.83876 34.92C6.068 35.1941 6.36123 35.4076 6.69255 35.5415C7.02386 35.6754 7.38305 35.7256 7.73838 35.6877L16.7917 34.7203L16.9448 34.7043C17.3125 34.6651 17.6595 34.5142 17.9391 34.2721C18.2187 34.0299 18.4176 33.7081 18.509 33.3497C18.5467 33.2033 18.5657 33.0527 18.5656 32.9015C18.5656 33.3491 18.7312 33.7808 19.0304 34.1136C19.3296 34.4464 19.7414 34.6568 20.1864 34.7043L21.1893 34.8117L29.3928 35.6877C29.6872 35.7198 29.985 35.6914 30.2681 35.6043L30.3102 35.5913C30.3174 35.5891 30.3254 35.5869 30.3326 35.584C30.3703 35.571 30.4073 35.5572 30.4436 35.542C30.4436 35.542 30.4443 35.5419 30.445 35.5412C30.9307 35.3415 31.3286 34.974 31.5662 34.5056C31.5829 34.473 31.5988 34.4404 31.6133 34.407C31.6228 34.3853 31.6322 34.3635 31.6409 34.3417C31.6496 34.32 31.6583 34.2975 31.667 34.2758C31.6757 34.2533 31.6837 34.2308 31.6909 34.2083C31.8302 33.7894 31.8376 33.3378 31.712 32.9146ZM12.3796 31.9689L9.49988 32.1488L11.0366 28.0963C11.0917 28.2486 11.3259 29.0333 11.4079 29.187C11.6489 29.6359 11.9797 30.0304 12.3796 30.3459V31.9689ZM24.8335 32.1488V29.8317C24.8335 29.8317 25.4786 29.6251 25.7965 29.1841C26.0711 28.6376 26.0054 27.8817 26.0373 27.8099L27.6313 32.1488H24.8335Z" fill="#F55D55"/>
<path d="M26.5812 19.8284L26.1381 20.9104C25.3698 19.9634 24.3222 19.283 23.1445 18.9661L23.2345 18.766H23.2352C24.4336 18.7656 25.6026 19.1368 26.5812 19.8284Z" fill="#3CE568"/>
<path d="M22.5537 9.1825H23.7141C24.1757 9.1825 24.6184 9.36587 24.9448 9.69227C25.2712 10.0187 25.4545 10.4614 25.4545 10.923C25.4545 11.3846 25.2712 11.8273 24.9448 12.1537C24.6184 12.4801 24.1757 12.6634 23.7141 12.6634H22.5537V9.1825ZM14.5766 9.25501L13.4163 9.1825C12.9547 9.1825 12.512 9.36587 12.1856 9.69227C11.8592 10.0187 11.6758 10.4614 11.6758 10.923C11.6758 11.3846 11.8592 11.8273 12.1856 12.1537C12.512 12.4801 12.9547 12.6634 13.4163 12.6634L14.5766 12.736" fill="#FFC97A"/>
<path d="M21.8841 18.581L21.8543 18.6086L19.9811 20.468C19.605 20.8415 19.0964 21.051 18.5663 21.051C18.0362 21.051 17.5276 20.8415 17.1514 20.468L15.2782 18.6086L15.2695 18.5702C15.5529 18.4238 15.7905 18.2023 15.9563 17.9298C16.1221 17.6573 16.2097 17.3444 16.2094 17.0255V16.0668H20.9232V17.0255C20.9229 17.3485 21.0127 17.6651 21.1825 17.9399C21.3522 18.2146 21.5952 18.4367 21.8841 18.581Z" fill="#FFC97A"/>
<path d="M26.5845 19.8284L19.4953 37.1302H14.9688L23.2377 18.766H23.2384C24.4368 18.7656 25.6058 19.1368 26.5845 19.8284Z" fill="#FCFCFC"/>
<path d="M18.5039 17.1261C15.8867 17.0922 13.8047 14.9105 13.8047 12.2931V8.82258C13.8052 8.47223 13.944 8.13625 14.191 7.88772C14.4379 7.6392 14.773 7.49822 15.1233 7.49547C15.7399 7.4924 16.344 7.32188 16.8712 7.00212C18.3056 6.13116 18.5049 4.59098 18.525 4.41113C18.5718 4.62405 18.9659 6.28163 20.5884 7.06514C21.0444 7.28463 21.5406 7.40815 22.0463 7.42803C22.3902 7.44058 22.7158 7.5857 22.955 7.833C23.1942 8.0803 23.3285 8.41057 23.3296 8.75463V12.3641C23.3296 12.9948 23.2043 13.6193 22.961 14.2012C22.7177 14.7831 22.3612 15.3109 21.9123 15.7539C21.4633 16.1969 20.9308 16.5464 20.3457 16.7819C19.7606 17.0175 19.1346 17.1345 18.5039 17.1261Z" fill="#FFCD85"/>
<path d="M18.5657 9.25498C18.766 9.25498 18.9283 9.09264 18.9283 8.89238C18.9283 8.69213 18.766 8.52979 18.5657 8.52979C18.3655 8.52979 18.2031 8.69213 18.2031 8.89238C18.2031 9.09264 18.3655 9.25498 18.5657 9.25498Z" fill="#FF6666"/>
<path d="M18.5682 8.52986C18.5249 8.53012 18.4819 8.53823 18.4414 8.55379C18.5106 8.57934 18.5704 8.6255 18.6125 8.68604C18.6547 8.74658 18.6773 8.8186 18.6773 8.89238C18.6773 8.96617 18.6547 9.03819 18.6125 9.09873C18.5704 9.15927 18.5106 9.20542 18.4414 9.23098C18.4911 9.24957 18.5442 9.25703 18.597 9.25283C18.6499 9.24863 18.7012 9.23288 18.7473 9.20668C18.7934 9.18048 18.8332 9.14448 18.8638 9.10122C18.8945 9.05796 18.9152 9.0085 18.9247 8.95633C18.9341 8.90415 18.932 8.85055 18.9184 8.79929C18.9049 8.74803 18.8802 8.70038 18.8462 8.65969C18.8122 8.61901 18.7697 8.58629 18.7217 8.56384C18.6736 8.54139 18.6213 8.52977 18.5682 8.52979V8.52986Z" fill="#FF4E4E"/>
<path d="M16.3274 11.4772C16.5277 11.4772 16.69 11.1911 16.69 10.8382C16.69 10.4853 16.5277 10.1992 16.3274 10.1992C16.1272 10.1992 15.9648 10.4853 15.9648 10.8382C15.9648 11.1911 16.1272 11.4772 16.3274 11.4772Z" fill="#4A4F60"/>
<path d="M20.804 11.4772C21.0043 11.4772 21.1666 11.1911 21.1666 10.8382C21.1666 10.4853 21.0043 10.1992 20.804 10.1992C20.6037 10.1992 20.4414 10.4853 20.4414 10.8382C20.4414 11.1911 20.6037 11.4772 20.804 11.4772Z" fill="#4A4F60"/>
<path d="M18.6775 14.9131H18.6708C18.3377 14.9096 18.0191 14.7765 17.7826 14.542C17.7479 14.5085 17.7203 14.4685 17.7013 14.4243C17.6823 14.3801 17.6723 14.3325 17.6719 14.2843C17.6715 14.2362 17.6806 14.1884 17.6989 14.1439C17.7171 14.0993 17.744 14.0588 17.7781 14.0248C17.8121 13.9907 17.8526 13.9638 17.8972 13.9456C17.9417 13.9273 17.9895 13.9182 18.0376 13.9186C18.0858 13.919 18.1333 13.929 18.1776 13.948C18.2218 13.967 18.2618 13.9946 18.2953 14.0293C18.3968 14.1286 18.5325 14.1854 18.6746 14.1879C18.8183 14.1853 18.9557 14.1287 19.0595 14.0293C19.1276 13.9618 19.2196 13.924 19.3155 13.9242C19.4114 13.9243 19.5033 13.9625 19.5712 14.0302C19.639 14.098 19.6772 14.1899 19.6775 14.2858C19.6777 14.3817 19.64 14.4738 19.5725 14.5419C19.3344 14.7782 19.013 14.9115 18.6775 14.9131Z" fill="#F55D55"/>
<path d="M18.5655 26.725V32.9015C18.5654 33.349 18.3998 33.7808 18.1006 34.1136C17.8014 34.4464 17.3897 34.6568 16.9447 34.7043L7.73828 35.6877L9.22929 32.6919L9.49979 32.1487L9.79712 32.1299L12.3795 31.9689L13.3963 31.9051L15.4761 31.7753L16.0911 29.8455C16.289 29.2229 16.6335 28.6568 17.0955 28.195L18.5655 26.725ZM18.5655 26.725V32.9015C18.5655 33.349 18.7311 33.7808 19.0303 34.1136C19.3295 34.4464 19.7413 34.6568 20.1863 34.7043L29.3928 35.6877L27.9017 32.6919L27.6312 32.1487L27.3339 32.1299L24.7515 31.9689L23.7348 31.9051L21.6549 31.7753L21.0399 29.8455C20.842 29.2229 20.4976 28.6568 20.0355 28.195L18.5655 26.725Z" fill="#FFCD85"/>
<path d="M20.7395 34.7043C20.2944 34.6568 19.8827 34.4464 19.5835 34.1136C19.2843 33.7808 19.1187 33.349 19.1186 32.9015V27.2772L18.5664 26.725V32.9015C18.5665 33.349 18.732 33.7808 19.0313 34.1136C19.3305 34.4464 19.7422 34.6568 20.1872 34.7043H20.7395Z" fill="#FFC570"/>
</g>
<defs>
<clipPath id="clip0_2075_28949">
<rect width="37.1301" height="37.1301" fill="white"/>
</clipPath>
</defs>
</svg>
