<svg width="1762" height="1762" viewBox="0 0 1762 1762" fill="none" xmlns="http://www.w3.org/2000/svg">
<mask id="mask0_1616_336" style="mask-type:alpha" maskUnits="userSpaceOnUse" x="0" y="0" width="1762" height="1762">
<circle cx="881" cy="881" r="881" fill="url(#paint0_angular_1616_336)"/>
</mask>
<g mask="url(#mask0_1616_336)">
<path fill-rule="evenodd" clip-rule="evenodd" d="M1260.25 1215.7C1244.13 1139.32 1186.96 1080.06 1110.07 1050.54C1095.29 1042.18 1080.96 1006.31 1061.09 999.738C1057.91 998.685 1062.94 1007.07 1061.09 1007.57C1054.53 1009.35 1047.16 1009.54 1039.91 1003.09C1026.95 991.569 1022.88 957.909 1015 942.696C973.434 862.462 869.651 893.855 855.747 982.552C846.052 988.871 832.348 994.437 821.795 999.529C810.928 1004.77 801.37 1017.47 790.171 1022.01C780.179 1026.06 763.715 1023.19 753.647 1026.73C707.338 1042.97 668.116 1063.47 637.367 1105C630.887 1113.76 623.583 1124.52 617.687 1133.37C587.29 1168.37 566.176 1207.59 546.73 1249.67C492.324 1373.18 477.526 1509.94 464.249 1643.01C464.551 1666.3 449.101 1730.86 471.953 1742.03C470.587 1743.44 471.082 1746.29 473.616 1746.26C531.56 1745.68 589.37 1750.86 646.415 1760.94C673.938 1765.81 701.314 1772.48 729.349 1773.58C787.547 1773.17 845.535 1763.42 903.656 1772.65C973.526 1772.65 1058.44 1770.61 1136.17 1767.63C1208.82 1764.83 1281.85 1771.14 1353.6 1758.79C1359.28 1757.89 1362.05 1750.96 1360.86 1746C1352.44 1715.33 1348.31 1683.76 1343.59 1652.36C1344.53 1632.23 1342.85 1611.21 1335.4 1592.45C1315.93 1465.84 1290.98 1340.06 1260.25 1215.7Z" fill="#D08B5B"/>
<path fill-rule="evenodd" clip-rule="evenodd" d="M1061.09 1008.03C1062.94 1007.53 1057.91 999.149 1061.09 1000.2C1080.96 1006.77 1095.29 1042.64 1110.07 1051C1186.96 1080.52 1244.13 1139.79 1260.25 1216.16C1290.98 1340.52 1315.94 1466.31 1335.4 1592.92C1342.85 1611.67 1344.53 1632.69 1343.59 1652.83L1344.33 1657.79C1348.76 1687.54 1352.89 1717.4 1360.86 1746.46C1362.05 1751.43 1359.28 1758.35 1353.6 1759.25C1282.67 1771.46 1210.48 1765.44 1138.65 1768L1123.68 1768.56C1049.43 1771.29 969.8 1773.11 903.656 1773.11C845.535 1763.89 787.547 1773.64 729.349 1774.04C701.314 1772.94 673.938 1766.27 646.415 1761.41C589.37 1751.33 531.56 1746.14 473.616 1746.73C471.082 1746.75 470.587 1743.91 471.953 1742.49C449.101 1731.33 464.551 1666.76 464.249 1643.48L465.449 1631.49C478.45 1502.21 493.957 1369.94 546.73 1250.13L548.31 1246.73C567.324 1205.94 588.111 1167.89 617.687 1133.84L619.496 1131.13C625.036 1122.86 631.535 1113.35 637.367 1105.46C668.116 1063.93 707.338 1043.43 753.647 1027.19C763.715 1023.66 780.179 1026.53 790.171 1022.48C800.645 1018.23 809.684 1006.85 819.701 1001.1L819.701 1043.96L964.641 1186.73L1046.85 1060.68L1055.21 1009.06C1057.22 1008.93 1059.19 1008.55 1061.09 1008.03Z" fill="#405CD2"/>
<path fill-rule="evenodd" clip-rule="evenodd" d="M1236.81 1382.12C1235.27 1389.56 1233.13 1397.01 1230.27 1404.06C1227.52 1410.86 1223.37 1416.96 1220.51 1423.68C1220.13 1424.59 1219.5 1425.28 1218.75 1425.8L1218.98 1427.63V1427.63L1219.2 1429.46C1220.62 1441.8 1222.23 1454.11 1223.61 1466.45L1224.29 1472.63C1227.02 1498.39 1231.32 1524.04 1234.67 1549.74C1237.94 1574.91 1241.28 1600.07 1244.84 1625.2C1248.52 1651.11 1252.28 1676.99 1256.65 1702.8C1258.5 1713.69 1260.43 1724.58 1262.44 1735.46L1263.99 1743.79C1279.97 1747.64 1284.34 1769.91 1268.07 1778.13C1260.69 1781.85 1251.2 1780.96 1245.11 1775.12C1238.79 1769.03 1238.52 1758.05 1237.05 1749.81L1235.64 1742.15C1225.06 1684.54 1215.88 1626.27 1211.58 1567.84C1210.48 1552.76 1209.55 1537.66 1208.95 1522.55C1208.37 1508.34 1208.65 1494.13 1208.43 1479.91L1208.35 1476.04C1208.02 1460.88 1208.3 1445.75 1208.69 1430.59C1208.74 1428.75 1208.82 1426.9 1208.91 1425.04C1208.38 1424.42 1207.99 1423.67 1207.83 1422.95L1207.62 1422C1207.1 1419.55 1207.69 1416.68 1209.57 1414.93C1210.39 1404.6 1211.45 1394.29 1211.74 1383.98C1211.77 1383.13 1212.99 1383.15 1213.06 1383.98C1213.74 1392.76 1215.11 1401.56 1216.48 1410.35C1225.3 1403.27 1231.81 1391.58 1235.66 1381.81C1235.94 1381.1 1236.97 1381.35 1236.81 1382.12ZM1028.25 971.667C1029.71 978.356 1032.6 984.362 1036.48 989.948C1038.33 992.619 1040.43 995.104 1042.95 997.183C1045.11 998.959 1047.57 1000.12 1049.87 1001.67C1053.22 1001.14 1056.71 1002.41 1059.06 1004.87L1058.69 1001.27C1058.57 1000.11 1060.5 999.878 1060.72 1001C1070.88 1052.24 1080.15 1103.52 1088.17 1155.13L1091.68 1177.92L1094.99 1199.32C1100.49 1234.98 1105.8 1270.62 1109.8 1306.54C1115.13 1354.47 1119.61 1402.52 1122.89 1450.65C1126.17 1499.12 1128.2 1547.61 1129.64 1596.17C1130 1608.41 1130.38 1620.64 1130.75 1632.88L1133.23 1618.25C1135.71 1603.61 1138.13 1588.96 1140.22 1574.26C1147.68 1521.63 1153.65 1468.64 1156.57 1415.57C1159.24 1367 1158.35 1317.47 1145.99 1270.15C1142.87 1258.25 1139.07 1246.53 1134.47 1235.11C1130.01 1224.01 1123.92 1213.72 1119.12 1202.78C1113.55 1190.05 1111.88 1178.04 1114.75 1164.34C1117.26 1152.4 1121.66 1141.17 1122.45 1128.88C1123.92 1106.07 1116.5 1083.98 1106.01 1064.02C1103.25 1058.76 1100.33 1053.57 1097.29 1048.42C1088.08 1032.87 1077.7 1017.89 1066.92 1003.52C1066.34 1002.76 1067.57 1001.91 1068.2 1002.54C1078.02 1012.25 1088.77 1021.79 1097.61 1032.4C1101.9 1037.55 1106.09 1042.81 1110.07 1048.21C1153.64 1055.5 1191.08 1082.64 1216.68 1118.48C1245.73 1159.15 1260.42 1208.1 1271.29 1256.31C1283.38 1309.88 1293.58 1363.94 1304.43 1417.78C1315.67 1473.5 1326.86 1529.21 1338.17 1584.91C1343.79 1612.56 1349.41 1640.21 1355.02 1667.87C1357.87 1681.88 1360.85 1695.85 1363.98 1709.81C1365.58 1716.97 1367.3 1724.11 1368.79 1731.28C1370.46 1739.38 1368.9 1744.56 1363.42 1750.51C1361.4 1752.71 1358.2 1752.68 1355.7 1751.5L1354.91 1751.13L1354.15 1750.77C1351.05 1749.24 1348.62 1747.66 1346.68 1744.27C1344.56 1740.54 1344.22 1736.41 1343.49 1732.26C1342.14 1724.63 1340.81 1717 1339.46 1709.36C1337.45 1697.93 1335.26 1686.54 1333.03 1675.14L1321.85 1618.21C1318.87 1603.03 1315.89 1587.85 1312.89 1572.68C1302.17 1518.42 1291.44 1464.17 1280.71 1409.92C1270.4 1357.83 1261.29 1305.39 1249.56 1253.6L1248.89 1250.68L1248.21 1247.77C1237.73 1203.13 1223.07 1159.94 1196.48 1122.11C1176.02 1093.02 1147.6 1067.04 1114.13 1053.89C1116.49 1057.28 1118.75 1060.75 1120.91 1064.28C1134.48 1086.43 1144.38 1112.74 1142.06 1139.13C1140.92 1152.02 1136.02 1164.69 1136.49 1177.68C1136.92 1189.23 1144.06 1199.37 1149 1209.41C1160.2 1232.17 1168.31 1256.37 1173.54 1281.18C1184.02 1331.02 1183.99 1382.29 1180.38 1432.88C1176.45 1487.87 1169 1542.85 1160.51 1597.31C1156.15 1625.24 1150.36 1652.94 1145.92 1680.82C1143.72 1694.57 1140.74 1708.29 1138.12 1721.97L1136.88 1728.51C1136.18 1732.13 1135.46 1735.75 1134.62 1739.33L1134.11 1741.47V1741.85C1134.08 1744.49 1133.36 1746.67 1132.2 1748.41C1130.61 1753.51 1128.64 1758.48 1126.01 1763.26C1124.67 1765.7 1122.71 1767.07 1120.59 1767.57C1118.45 1772.46 1113.61 1776.22 1107.83 1776.2L1031.77 1775.9C987.588 1775.73 943.41 1775.44 899.231 1775.2C888.083 1775.14 876.946 1774.93 865.808 1774.64C855.367 1774.35 845.356 1773.09 835.032 1771.79C823.371 1770.33 817.054 1762.07 818.796 1750.42C819.179 1747.86 819.596 1745.3 819.992 1742.75C817.669 1743.51 814.905 1743.15 813.036 1741.33L811.282 1739.61C808.852 1737.21 806.679 1734.85 805.138 1731.64C803.547 1728.35 802.257 1724.86 800.852 1721.49C797.82 1714.25 794.872 1706.98 792.002 1699.67C786.254 1685.06 780.506 1670.39 775.162 1655.63C764.583 1626.4 755.221 1596.73 747.081 1566.72C732.564 1513.18 722.064 1458.61 715.445 1403.55L713.862 1390.42L713.402 1386.55C710.891 1365.21 708.779 1343.53 709.777 1322.24C710.394 1308.91 712.46 1295.47 717.443 1283.02C722.041 1271.53 729.137 1261.71 735.885 1251.44L736.657 1250.26L737.433 1249.04C743.334 1239.72 748.03 1229.97 748.265 1218.64C748.503 1207.15 745.155 1195.97 741.412 1185.21L740.479 1182.56L739.853 1180.8C731.889 1158.57 722.827 1136.64 725.816 1112.45C730.23 1076.82 751.83 1048.1 779.007 1025.95C754.838 1030.74 730.915 1040.19 709.801 1052.17C684.866 1066.34 662.416 1085.04 643.056 1106.14C606.473 1146.02 580.354 1193.87 558.974 1243.28C536.594 1294.98 519.998 1349.16 507.491 1404.05C494.913 1459.25 486.493 1515.33 480.743 1571.63C477.876 1599.66 475.622 1627.75 473.753 1655.85C472.801 1670.25 472.081 1684.68 470.966 1699.06C469.851 1713.42 469.35 1728.01 465.843 1741.99C464.206 1748.51 453.161 1749.17 451.977 1741.99C449.351 1725.96 450.085 1709.39 450.818 1693.16L450.885 1691.68C451.606 1675.52 452.547 1659.36 453.66 1643.21C455.938 1610.19 458.979 1577.22 462.951 1544.35C476.876 1428.98 502.555 1314.21 552.924 1208.9C576.639 1159.3 607.078 1111.1 649.422 1075.29C669.582 1058.25 692.31 1044.65 716.803 1034.8C738.708 1025.99 760.96 1021.82 784.234 1021.83C795.905 1012.89 808.437 1005.09 820.955 998.436C821.71 998.031 822.5 999.007 821.874 999.634C821.548 999.947 821.234 1000.27 820.91 1000.57C822.326 1000.67 823.789 1001.33 825.101 1002.71C829.701 1007.53 833.58 1013.56 837.051 1019.82C842.336 1026.41 847.376 1033.23 852.65 1039.76C861.092 1050.21 869.732 1060.51 878.479 1070.73C893.167 1087.91 908.334 1104.76 924.15 1120.93L926.792 1123.62C934.99 1131.93 943.295 1141.87 952.991 1148.44L953.509 1148.78C957.6 1151.45 960.501 1151.93 963.989 1147.95C967.161 1144.33 969.801 1140.12 972.514 1136.13L973.142 1135.21C986.997 1115.09 999.842 1094.22 1011.47 1072.73C1016.77 1062.95 1021.81 1053.03 1026.59 1043L1028.02 1039.99C1030.62 1034.46 1033.44 1029.04 1035.59 1023.35C1036.09 1022.01 1036.57 1020.68 1037.05 1019.35C1029.73 1014.56 1024.07 1004.17 1022.01 996.045C1019.88 987.602 1020.96 978.937 1024.76 971.215C1025.48 969.763 1027.9 970.122 1028.25 971.667ZM667.308 1314.77C666.295 1346.87 665.681 1379.01 664.17 1411.08L663.649 1422.03C666.005 1424.66 667.387 1427.69 666.284 1431.85C665.855 1433.44 664.588 1434.88 663.009 1435.41L662.516 1445.6C660.275 1491.41 657.648 1537.12 652.847 1582.82C646.843 1640 639.898 1697.09 632.965 1754.18C631.978 1762.26 626.356 1768.67 617.611 1767.48C608.762 1766.29 605.174 1758.59 606.335 1750.56C610.899 1719.08 615.288 1687.57 619.133 1655.98L623.512 1619.99C629.002 1575 634.621 1530.02 641.095 1485.18C643.801 1466.43 646.611 1447.7 649.432 1428.97L648.446 1427.69C644.415 1422.45 640.246 1417.33 636.123 1412.18C628.204 1402.23 620.388 1392.37 613.129 1381.97C612.768 1381.44 613.501 1380.68 614.022 1381.07C624.196 1388.59 633.825 1396.62 643.511 1404.79L651.989 1411.97C656.866 1379.6 661.698 1347.22 666.005 1314.77C666.111 1313.96 667.33 1313.9 667.308 1314.77ZM813.651 1007.57C807.529 1013.34 801.271 1018.98 795.103 1024.72L792.844 1026.83L790.595 1028.95C779.755 1039.23 769.369 1049.93 760.716 1062.22C744.828 1084.79 735.363 1112.3 741.97 1139.85C747.453 1162.67 760.031 1183.35 763.41 1206.74C765.105 1218.46 764.281 1230.24 759.867 1241.3C755.361 1252.59 748.16 1262.27 741.691 1272.45C727.639 1294.59 725.723 1318.88 727.117 1344.53C728.581 1371.31 731.657 1398.1 735.456 1424.64C743.143 1478.41 754.734 1531.62 770.075 1583.73C777.753 1609.83 786.822 1635.37 795.847 1661.01C800.341 1673.77 805.58 1686.24 810.979 1698.64C813.824 1705.17 816.74 1711.66 819.702 1718.14C818.609 1708.99 818.609 1699.59 818.075 1690.5C817.308 1677.47 816.333 1664.46 815.438 1651.44C813.616 1625.02 811.99 1598.58 810.539 1572.13C805.394 1477.83 801.608 1383.44 801.885 1288.99C802.026 1241.76 802.99 1194.52 805.022 1147.34C805.975 1125.11 807.82 1102.92 809.488 1080.73L809.842 1075.97C811.317 1056.05 813.082 1036.09 816.112 1016.35C815.215 1014.32 814.436 1012.27 813.858 1010.17L813.651 1009.38L813.802 1009.4C813.663 1008.78 813.616 1008.17 813.651 1007.57ZM866.587 926.409C866.713 925.863 867.491 925.91 867.631 926.409C871.08 938.023 869.86 950.798 866.888 962.481C865.286 968.811 863.009 974.954 860.257 980.877L859.294 982.95C856.936 987.995 854.28 993.192 849.687 996.335C847.772 997.648 844.345 997.729 842.429 996.335L841.452 995.594C841.291 995.468 841.132 995.34 840.977 995.209C839.19 993.711 838.306 990.401 839.131 988.217C841.256 982.585 846.077 978.45 849.409 973.433C852.36 968.973 854.973 964.27 857.143 959.381C861.824 948.8 863.926 937.57 866.587 926.409Z" fill="black"/>
<path fill-rule="evenodd" clip-rule="evenodd" d="M1140.66 729.504C1140.2 703.487 1139.69 676.95 1135.82 651.186C1132.04 625.998 1121.64 603.231 1103.76 584.941C1065.79 546.089 1010.75 536.6 959.524 527.903L871.935 513.034C845.213 508.499 816.705 501.25 789.707 507.682C776.403 510.851 765.105 518.214 754.78 526.925C744.827 535.322 734.126 544.339 727.382 555.636C720.626 566.949 718.302 580.173 716.106 592.968C713.629 607.393 711.704 621.931 710.337 636.504C707.598 665.701 707.224 695.117 709.211 724.375C710.174 738.565 711.706 752.715 713.661 766.803C714.631 773.788 715.727 780.757 716.965 787.7C717.33 789.748 717.608 792.015 717.982 794.305C715.219 802.163 713.649 810.301 713.775 818.404C714.148 842.272 734.294 857.299 754.604 865.367C766.381 870.045 778.692 873.224 790.263 878.45C802.435 883.947 810.72 892.858 819.043 903.023C834.915 922.411 852.827 939.836 873.28 954.374C916.643 985.198 971.567 999.777 1024.18 988.711C1036.81 986.057 1049.54 981.934 1060.89 975.722C1072.87 969.163 1081.88 959.66 1089.44 948.424C1103.49 927.564 1113.56 904.076 1121.18 880.173C1128.96 855.792 1134.48 831.366 1137.48 805.942C1140.48 780.601 1141.11 755.002 1140.66 729.504V729.504Z" fill="#D08B5B"/>
<path fill-rule="evenodd" clip-rule="evenodd" d="M861.153 422.405C897.399 417.42 947.428 433.624 965.479 466.298C1051.66 445.981 1160.36 445.316 1231.39 512.95C1305.5 593.18 1212.41 698.963 1150.68 722.813C1155.17 744.655 1148.16 884.583 1098.58 946.998C1059.23 999.882 967.588 1024.29 925.183 961.123L924.852 960.602C920.309 953.307 924.222 953.541 928.885 958.967C970.409 995.483 1026.87 996.107 1070.37 957.57C1151.91 887.133 1143.5 714.426 1104.7 614.512C994.223 602.378 875.933 635.864 799.625 719.028L804.785 750.093C805.664 755.385 806.663 760.673 807.424 765.984C807.912 769.386 807.967 772.771 805.609 775.525C797.825 784.619 784.705 770.954 773.91 765.519C770.723 765.071 767.53 764.898 764.399 765.118C712.535 771.799 722.754 872.408 779.756 854.773C784.546 851.789 788.66 852.7 790.518 857.029C804.105 869.474 813.064 891.671 835.638 913.049C843.602 921.068 850.85 927.777 859.809 934.21C865.071 939.532 880.95 944.958 875.916 954.064C866.398 974.785 810.268 909.696 800.344 891.696C769.25 903.974 734.792 899.804 702.57 896.803C532.581 887.965 555.274 708.777 694.61 595.647C720.839 576.338 749.776 560.586 779.857 548.465C783.964 546.81 782.169 540.067 778.005 541.745C758.101 549.767 738.698 559.315 720.202 570.365L720.174 563.758C720.147 552.631 720.322 541.046 722.254 530.88C723.221 523.835 724.845 516.31 727.347 510.65C730.44 493.295 778.886 433.726 861.153 422.405ZM762.131 788.216C764.755 785.723 769.655 788.696 771.992 788.622C777.967 789.439 783.644 791.963 788.071 795.078C790.994 796.715 793.043 798.253 794.755 799.668L794.801 799.655C794.788 799.655 794.772 799.668 794.758 799.671L794.919 799.78C797.412 801.551 806.537 811.526 800.772 808.844C800.342 808.285 799.902 807.748 799.458 807.222C799.411 807.294 799.344 807.365 799.265 807.434L799.589 807.914C804.489 815.285 796.029 807.52 794.728 805.457C794.666 805.507 794.597 805.541 794.528 805.577L796.223 807.639C796.46 807.932 796.646 808.166 796.801 808.364L797.158 808.709C802.824 814.277 803.001 819.289 796.419 811.056C796.678 811.444 796.886 811.855 796.915 812.22L797.305 812.717C802.473 819.376 798.269 817.011 795.701 814.167L795.486 813.922L795.53 813.989C797.919 817.669 793.179 815.087 792.342 813.118L792.306 813.029C791.394 812.284 790.832 811.449 790.64 811.238L790.604 811.202C786.161 806.65 779.72 802.797 774.248 801.047C773.455 800.896 772.653 800.775 771.842 800.69C768.552 799.956 765.226 799.453 761.865 799.181C761.454 799.132 761.037 798.83 760.725 798.44C755.643 798.269 757.212 796.185 759.321 795.799L759.357 795.792L758.939 795.757C755.677 795.439 753.45 794.268 756.748 793.55L757.166 793.467C757.115 793.387 757.069 793.307 757.025 793.227C754.201 792.917 756.044 790.171 757.612 790.835C756.952 788.679 759.967 789.755 760.343 789.435C760.63 789.117 760.987 788.835 761.192 788.82C762.1 788.179 761.66 788.237 762.131 788.216ZM779.412 753.299L778.75 753.686C778.215 753.998 777.664 754.206 777.112 754.328C777.892 754.66 778.663 755.019 779.426 755.402C779.414 754.934 779.405 754.466 779.405 753.999L779.412 753.299Z" fill="black"/>
<path fill-rule="evenodd" clip-rule="evenodd" d="M1117.21 845.096C1115.66 840.471 1107.7 840.874 1108.19 846.317C1108.75 852.536 1106.62 859.472 1100.66 862.492C1094.42 865.653 1087.4 862.811 1083.6 857.388C1080.29 852.674 1078.01 847.546 1073.84 843.435C1069.97 839.612 1065.26 836.663 1060.11 834.913C1056.1 833.55 1051.94 833.188 1047.91 833.635C1037.85 831.362 1026.19 836.532 1019.93 844.373C1019.52 844.878 1019.15 845.398 1018.79 845.921C1018.16 845.076 1017.51 844.238 1016.82 843.413C1015.05 841.285 1012.84 840.829 1010.85 841.408C999.518 832.978 983.632 831.861 970.757 839.469C960.442 845.565 951.909 854.549 939.225 855.248C929.178 855.802 918.234 850.07 917.526 839.029C917.154 833.264 909.298 828.458 904.891 833.795C895.626 845.019 893.772 859.927 898.898 873.498C904.308 887.817 915.329 897.903 929.284 903.836C944.354 910.244 962.014 912.469 978.316 911.961C994.568 911.455 1009.35 905.206 1019.14 891.912C1020.31 890.325 1021.34 888.713 1022.24 887.083C1031.75 899.193 1046.66 904.284 1061.85 904.649C1077.74 905.03 1096.52 902.242 1107.75 889.904C1118.57 878.011 1122.31 860.326 1117.21 845.096" fill="black"/>
<path fill-rule="evenodd" clip-rule="evenodd" d="M1116.86 762.302C1113.58 771.24 1108.58 780.544 1102.47 788.067C1077.74 809.008 1053.71 797.413 1041.5 769.031C1036.87 748.973 1049.18 727.366 1062.22 712.611C1081.06 693.731 1111.8 703.64 1120.46 726.084C1120.99 728.992 1121.31 731.894 1121.46 734.785C1121.28 744.182 1120.15 752.213 1116.86 761.14M879.152 744.276C911.731 705.525 972.679 703.453 971.124 763.095C964.126 838.588 846.281 820.059 879.152 744.276ZM1127.11 711.949C1125.97 710.016 1124.7 708.145 1123.32 706.355C1122.8 706.051 1122.51 703.352 1120.63 703.152C1095.52 675.443 1051.39 691.164 1035.45 718.775C1032.54 722.266 1030.16 726.353 1028.41 730.671C1012.7 727.789 994.388 728.349 979.778 734.282C965.291 696.454 921.432 693.077 892.529 709.24C874.552 718.081 862.895 736.597 845.412 746.768C804.312 749.726 760.202 740.518 719.845 750.827C688.016 757.445 714.623 773.561 719.961 762.806C758.011 751.564 803.089 761.064 842.596 758.531C846.703 765.479 854.581 771.165 862.432 770.922C870.911 846.087 980.526 833.624 984.307 766.807C988.596 760.025 993.93 753.536 1001.56 749.311C1004.49 748.705 1007.31 747.919 1009.89 746.702C1014.3 746.08 1021.1 747.949 1025.16 751.622C1039.06 835.027 1119.14 825.313 1133.45 752.246C1133.74 751.956 1134.53 750.867 1135.14 749.119C1140.04 742.642 1152.03 740.234 1150.12 729.3C1148.41 718.364 1134.6 718.494 1127.11 711.949Z" fill="black"/>
<path fill-rule="evenodd" clip-rule="evenodd" d="M935.106 675.661L937.286 675.28L938.404 675.09C944.935 674.01 952.678 673.288 957.189 678.415C959.72 681.291 960.591 686.635 957.189 689.388C951.206 694.231 944.591 692.354 937.421 692.764C931.512 693.103 925.832 694.081 920.141 695.708C907.654 699.277 897.479 705.792 886.814 712.946C885.414 713.884 883.986 712.095 884.654 710.786C890.81 698.727 902.741 688.822 914.691 682.784C921.07 679.561 928.049 676.888 935.106 675.661ZM939.329 726.959C941.388 726.959 943.358 727.658 945.151 728.951C946.917 730.224 948.515 732.082 949.846 734.399C952.365 738.784 953.94 744.839 953.94 751.533C953.94 758.228 952.365 764.282 949.846 768.667C948.515 770.985 946.917 772.843 945.151 774.116C943.358 775.409 941.388 776.108 939.329 776.108C937.269 776.108 935.3 775.409 933.506 774.116C931.74 772.843 930.142 770.985 928.811 768.667C926.292 764.282 924.717 758.228 924.717 751.533C924.717 744.839 926.292 738.784 928.811 734.399C930.142 732.082 931.74 730.224 933.506 728.951C935.3 727.658 937.269 726.959 939.329 726.959ZM1069.68 726.959C1071.74 726.959 1073.71 727.658 1075.5 728.951C1077.27 730.224 1078.87 732.082 1080.2 734.399C1082.72 738.784 1084.29 744.839 1084.29 751.533C1084.29 758.228 1082.72 764.282 1080.2 768.667C1078.87 770.985 1077.27 772.843 1075.5 774.116C1073.71 775.409 1071.74 776.108 1069.68 776.108C1067.62 776.108 1065.65 775.409 1063.86 774.116C1062.09 772.843 1060.49 770.985 1059.16 768.667C1056.64 764.282 1055.07 758.228 1055.07 751.533C1055.07 744.839 1056.64 738.784 1059.16 734.399C1060.49 732.082 1062.09 730.224 1063.86 728.951C1065.65 727.658 1067.62 726.959 1069.68 726.959ZM1051.95 670.26L1053.61 670.601L1054.72 670.836C1072.72 674.708 1095.54 682.341 1103.97 699.818C1104.3 702.341 1103.95 702.881 1103.67 703.234L1103.58 703.352C1103.34 703.654 1103.16 704.069 1102.07 704.413C1101.76 704.34 1101.46 704.264 1101.15 704.183C1097.2 703.15 1094.08 701.726 1091.07 700.25L1087.79 698.637C1083.99 696.774 1080.16 694.98 1076.1 693.655C1067.43 690.828 1058.52 688.837 1049.47 687.774C1047.51 687.543 1045.62 686.881 1044.13 685.746C1042.71 684.669 1041.63 683.178 1041.14 681.195C1040.5 678.63 1040.68 676.688 1042.06 674.373C1043.09 672.635 1044.58 671.43 1046.28 670.738C1048.01 670.033 1049.98 669.867 1051.95 670.26Z" fill="black"/>
</g>
<defs>
<radialGradient id="paint0_angular_1616_336" cx="0" cy="0" r="1" gradientUnits="userSpaceOnUse" gradientTransform="translate(886.392 895.018) rotate(127.804) scale(879.607)">
<stop offset="0.0509297" stop-color="white"/>
<stop offset="0.316713" stop-color="#40D2AC"/>
<stop offset="0.81577" stop-color="#405CD2"/>
</radialGradient>
</defs>
</svg>
