<svg width="32" height="32" viewBox="0 0 32 32" fill="none" xmlns="http://www.w3.org/2000/svg">
<circle cx="16.0306" cy="15.9696" r="15.1768" fill="current"/>
<g clip-path="url(#clip0_15_222)">
<path fill-rule="evenodd" clip-rule="evenodd" d="M23.6432 9.31404C23.7692 9.5115 23.741 9.77002 23.5754 9.93565L15.103 18.408C14.948 18.563 14.7101 18.5987 14.5164 18.4962L8.51517 15.3191C8.3409 15.2268 8.23726 15.0406 8.25067 14.8439C8.26409 14.6472 8.39204 14.4768 8.57723 14.409L23.0508 9.11379C23.2708 9.03331 23.5171 9.11659 23.6432 9.31404ZM9.97352 14.9614L14.6577 17.4412L21.2707 10.8283L9.97352 14.9614Z" fill="#FCFCFC"/>
<path fill-rule="evenodd" clip-rule="evenodd" d="M23.4908 9.16182C23.6883 9.28785 23.7715 9.5342 23.6911 9.75418L18.3958 24.2278C18.3281 24.413 18.1577 24.5409 17.961 24.5543C17.7643 24.5677 17.578 24.4641 17.4858 24.2898L14.3086 18.2886C14.2061 18.0949 14.2419 17.857 14.3968 17.702L22.8692 9.22964C23.0349 9.064 23.2934 9.0358 23.4908 9.16182ZM21.9766 11.5343L15.3636 18.1473L17.8435 22.8315L21.9766 11.5343Z" fill="#FCFCFC"/>
</g>
<defs>
<clipPath id="clip0_15_222">
<rect width="15.9756" height="15.9756" fill="white" transform="translate(8.04272 8.78052)"/>
</clipPath>
</defs>
</svg>
