<svg width="31" height="30" viewBox="0 0 31 30" fill="none" xmlns="http://www.w3.org/2000/svg">
<path d="M29.1289 0.538256L0.832262 16.6439C0.218435 16.9932 0.29114 17.9001 0.952787 18.1473L9.09659 21.1889C9.39386 21.3 9.7284 21.2323 9.95921 21.0146L18.2436 13.1978C18.9815 12.5016 20.0869 13.4801 19.4853 14.297L13.3421 22.6388C13.2368 22.7819 13.1799 22.9548 13.1799 23.1325V29.0933C13.1799 29.8603 14.1292 30.2193 14.6367 29.6441L18.3895 25.3909C18.6149 25.1356 18.973 25.0432 19.2938 25.1577L24.7835 27.1183C25.2683 27.2915 25.7925 26.9875 25.883 26.4807L30.3603 1.40813C30.4843 0.713511 29.7421 0.189222 29.1289 0.538256Z" fill="#FCFCFC"/>
</svg>
